<?xml version="1.0" encoding="UTF-8" standalone="no"?>
<!DOCTYPE svg PUBLIC "-//W3C//DTD SVG 1.1//EN" "http://www.w3.org/Graphics/SVG/1.1/DTD/svg11.dtd">
<svg width="100%" height="100%" viewBox="0 0 1000 250" version="1.1" xmlns="http://www.w3.org/2000/svg" xmlns:xlink="http://www.w3.org/1999/xlink" xml:space="preserve" xmlns:serif="http://www.serif.com/" style="fill-rule:evenodd;clip-rule:evenodd;stroke-linejoin:round;stroke-miterlimit:2;">
    <g transform="matrix(1,0,0,1,-2.84941,12.2803)">
        <g transform="matrix(1,0,0,1,128.652,31)">
            <g transform="matrix(68.75,0,0,68.75,108,119)">
                <path d="M0.321,0C0.543,0 0.677,-0.137 0.677,-0.364C0.677,-0.591 0.543,-0.727 0.323,-0.727L0.063,-0.727L0.063,0L0.321,0ZM0.217,-0.132L0.217,-0.596L0.315,-0.596C0.451,-0.596 0.523,-0.526 0.523,-0.364C0.523,-0.202 0.451,-0.132 0.315,-0.132L0.217,-0.132Z" style="fill-rule:nonzero;"/>
            </g>
            <g transform="matrix(68.75,0,0,68.75,158,119)">
                <path d="M0.321,0C0.543,0 0.677,-0.137 0.677,-0.364C0.677,-0.591 0.543,-0.727 0.323,-0.727L0.063,-0.727L0.063,0L0.321,0ZM0.217,-0.132L0.217,-0.596L0.315,-0.596C0.451,-0.596 0.523,-0.526 0.523,-0.364C0.523,-0.202 0.451,-0.132 0.315,-0.132L0.217,-0.132Z" style="fill-rule:nonzero;"/>
            </g>
            <g transform="matrix(68.75,0,0,68.75,208,119)">
                <rect x="0.069" y="-0.424" width="0.332" height="0.12" style="fill-rule:nonzero;"/>
            </g>
            <g transform="matrix(68.75,0,0,68.75,238.811,119)">
                <path d="M0.227,0L0.377,0L0.515,-0.475L0.521,-0.475L0.659,0L0.809,0L1.017,-0.727L0.849,-0.727L0.729,-0.221L0.722,-0.221L0.59,-0.727L0.446,-0.727L0.313,-0.222L0.307,-0.222L0.187,-0.727L0.019,-0.727L0.227,0Z" style="fill-rule:nonzero;"/>
            </g>
            <g transform="matrix(68.75,0,0,68.75,310.026,119)">
                <path d="M0.063,0L0.217,0L0.217,-0.258L0.329,-0.258L0.467,0L0.637,0L0.482,-0.283C0.565,-0.318 0.611,-0.39 0.611,-0.49C0.611,-0.634 0.515,-0.727 0.35,-0.727L0.063,-0.727L0.063,0ZM0.217,-0.381L0.217,-0.602L0.321,-0.602C0.409,-0.602 0.452,-0.562 0.452,-0.49C0.452,-0.418 0.409,-0.381 0.321,-0.381L0.217,-0.381Z" style="fill-rule:nonzero;"/>
            </g>
            <g transform="matrix(68.75,0,0,68.75,355.144,119)">
                <path d="M0.036,-0.6L0.258,-0.6L0.258,0L0.41,0L0.41,-0.6L0.633,-0.6L0.633,-0.727L0.036,-0.727L0.036,-0.6Z" style="fill-rule:nonzero;"/>
            </g>
        </g>
        <g transform="matrix(1,0,0,1,466.921,25.9951)">
            <g transform="matrix(68.75,0,0,68.75,108,119)">
                <path d="M0.276,-0.039L0.403,-0.039L0.403,-0.227L0.591,-0.227L0.591,-0.354L0.403,-0.354L0.403,-0.542L0.276,-0.542L0.276,-0.354L0.088,-0.354L0.088,-0.227L0.276,-0.227L0.276,-0.039Z" style="fill-rule:nonzero;"/>
            </g>
        </g>
        <g transform="matrix(0.409211,0,0,0.409211,711.851,112.72)">
            <g transform="matrix(1,0,0,1,-129.153,-190)">
                <clipPath id="_clip1">
                    <rect x="0" y="0" width="258.305" height="380"/>
                </clipPath>
                <g clip-path="url(#_clip1)">
                    <g>
                        <path d="M106.925,116.781C59.488,111.722 11.699,75.865 7.926,0C81.539,0 120.905,43.577 124.707,112.628C138.629,29.802 203.878,39.512 203.878,39.512C206.978,86.453 168.431,114.91 124.707,117.279C112.424,91.395 38.84,27.901 38.84,27.901C38.803,27.87 38.756,27.853 38.707,27.853C38.595,27.853 38.503,27.945 38.503,28.057C38.503,28.084 38.508,28.11 38.518,28.135C38.528,28.16 109.528,89.992 106.925,116.781" style="fill:url(#_Linear2);fill-rule:nonzero;"/>
                        <path d="M129.153,380C124.561,379.737 81.715,378.099 79.112,329.959C77.006,300.713 100.111,279.158 100.111,250.76C94.876,179.954 0,188.728 0,250.76C-0.039,266.257 6.101,281.148 17.051,292.114L87.74,362.832C98.706,373.783 113.597,379.922 129.094,379.883" style="fill:rgb(152,2,0);fill-rule:nonzero;"/>
                        <path d="M258.305,250.789C258.042,255.381 256.404,298.227 208.265,300.83C179.018,302.935 157.434,279.831 129.065,279.831C58.259,285.066 67.033,379.912 129.065,379.912C144.562,379.952 159.453,373.812 170.42,362.862L241.167,292.173C252.117,281.206 258.257,266.315 258.218,250.818" style="fill:rgb(255,0,0);fill-rule:nonzero;"/>
                        <path d="M129.153,121.636C133.745,121.899 176.591,123.537 179.194,171.677C181.299,200.924 158.195,222.478 158.195,250.877C163.43,321.682 258.276,312.908 258.276,250.877C258.315,235.379 252.176,220.488 241.225,209.522L170.507,138.775C159.541,127.824 144.65,121.685 129.153,121.724" style="fill:rgb(152,2,0);fill-rule:nonzero;"/>
                        <path d="M0.234,250.789C0.497,246.197 2.135,203.351 50.275,200.748C79.521,198.642 101.105,221.747 129.475,221.747C200.28,216.424 191.506,121.666 129.475,121.666C113.977,121.626 99.086,127.766 88.12,138.716L17.373,209.434C6.422,220.401 0.283,235.292 0.322,250.789" style="fill:rgb(255,0,0);fill-rule:nonzero;"/>
                    </g>
                </g>
            </g>
        </g>
    </g>
    <defs>
        <linearGradient id="_Linear2" x1="0" y1="0" x2="1" y2="0" gradientUnits="userSpaceOnUse" gradientTransform="matrix(196.127,0,0,196.127,7.92599,58.61)"><stop offset="0" style="stop-color:rgb(18,178,18);stop-opacity:1"/><stop offset="1" style="stop-color:rgb(0,255,0);stop-opacity:1"/></linearGradient>
    </defs>
</svg>
