<svg viewBox="0 0 1000 250" xmlns="http://www.w3.org/2000/svg" fill-rule="evenodd" clip-rule="evenodd" stroke-linejoin="round" stroke-miterlimit="2"><path d="M255.87 162.28c15.264 0 24.476-9.418 24.476-25.025 0-15.606-9.212-24.956-24.337-24.956h-17.876v49.98h17.737zm-7.15-9.075v-31.9h6.74c9.35 0 14.3 4.813 14.3 15.95 0 11.138-4.95 15.95-14.3 15.95h-6.74zM305.87 162.28c15.264 0 24.476-9.418 24.476-25.025 0-15.606-9.212-24.956-24.337-24.956h-17.876v49.98h17.737zm-7.15-9.075v-31.9h6.74c9.35 0 14.3 4.813 14.3 15.95 0 11.138-4.95 15.95-14.3 15.95h-6.74zM338.546 133.13h22.825v8.25h-22.824zM380.22 162.28h10.312l9.488-32.656h.412l9.488 32.656h10.312l14.3-49.98h-11.55l-8.25 34.787h-.48l-9.076-34.788h-9.9l-9.144 34.718h-.412l-8.25-34.72h-11.55l14.3 49.982zM440.16 162.28h10.587v-17.737h7.7l9.488 17.737h11.687l-10.656-19.456c5.706-2.406 8.87-7.356 8.87-14.23 0-9.9-6.6-16.295-17.945-16.295h-19.73v49.98zm10.587-26.193v-15.194h7.15c6.05 0 9.007 2.75 9.007 7.7s-2.957 7.494-9.007 7.494h-7.15zM483.422 121.03h15.262v41.25h10.45v-41.25h15.33v-8.73h-41.042v8.73z" fill-rule="nonzero"/><g><path d="M591.047 154.594h8.73V141.67h12.926v-8.732h-12.925v-12.925h-8.73v12.925H578.12v8.73h12.925v12.926z" fill-rule="nonzero"/></g><g><g transform="translate(656.15 47.25) scale(.4092)"><clipPath id="a"><path d="M0 0h258.305v380H0z"/></clipPath><g fill-rule="nonzero" clip-path="url(#a)"><path d="M106.925 116.78C59.488 111.723 11.7 75.866 7.925 0c73.614 0 112.98 43.577 116.782 112.628 13.922-82.826 79.17-73.116 79.17-73.116 3.1 46.94-35.446 75.398-79.17 77.767C112.424 91.394 38.84 27.9 38.84 27.9c-.037-.03-.084-.047-.133-.047-.112 0-.204.092-.204.204 0 .027.005.053.015.078.01.025 71.01 61.857 68.407 88.646" fill="url(#b)"/><path d="M129.153 380c-4.592-.263-47.438-1.9-50.04-50.04-2.107-29.247 20.998-50.802 20.998-79.2C94.877 179.954 0 188.728 0 250.76c-.04 15.497 6.1 30.388 17.05 41.354l70.69 70.718c10.966 10.95 25.857 17.09 41.354 17.05" fill="#980200"/><path d="M258.305 250.79c-.263 4.59-1.9 47.437-50.04 50.04-29.247 2.105-50.83-21-79.2-21-70.806 5.236-62.032 100.082 0 100.082 15.497.04 30.388-6.1 41.355-17.05l70.747-70.69c10.95-10.966 17.09-25.857 17.05-41.354" fill="#F00"/><path d="M129.153 121.636c4.592.263 47.438 1.9 50.04 50.04 2.106 29.248-20.998 50.802-20.998 79.2 5.235 70.806 100.08 62.032 100.08 0 .04-15.497-6.1-30.388-17.05-41.354l-70.718-70.747c-10.966-10.95-25.857-17.09-41.354-17.05" fill="#980200"/><path d="M.234 250.79c.263-4.593 1.9-47.44 50.04-50.042 29.247-2.106 50.83 21 79.2 21 70.806-5.324 62.032-100.082 0-100.082-15.497-.04-30.388 6.1-41.354 17.05l-70.747 70.718C6.423 220.4.283 235.292.323 250.79" fill="#F00"/></g></g></g><defs><linearGradient id="b" x2="1" gradientUnits="userSpaceOnUse" gradientTransform="translate(7.926 58.61) scale(196.127)"><stop offset="0" stop-color="#12B212"/><stop offset="1" stop-color="#0F0"/></linearGradient></defs></svg>