<svg xmlns="http://www.w3.org/2000/svg" viewBox="-951 -600.5 480.5203 125.3892" width="480.52" height="125.389"><g fill="none"><title>Canvas 1</title><title>Layer 1</title><circle cx="-860.461" cy="-555.695" r="12.539" fill="#fff"/><circle cx="-860.461" cy="-555.695" r="12.539" stroke="gray" stroke-linecap="round" stroke-linejoin="round"/><circle cx="-815.988" cy="-587.461" r="12.539" fill="#fff"/><circle cx="-815.988" cy="-587.461" r="12.539" stroke="gray" stroke-linecap="round" stroke-linejoin="round"/><circle cx="-773.522" cy="-555.695" r="12.539" fill="#fff"/><circle cx="-773.522" cy="-555.695" r="12.539" stroke="gray" stroke-linecap="round" stroke-linejoin="round"/><circle cx="-815.988" cy="-488.15" r="12.539" fill="#fff"/><circle cx="-815.988" cy="-488.15" r="12.539" stroke="gray" stroke-linecap="round" stroke-linejoin="round"/><circle cx="-859.458" cy="-519.247" r="12.539" fill="#fff"/><circle cx="-859.458" cy="-519.247" r="12.539" stroke="gray" stroke-linecap="round" stroke-linejoin="round"/><circle cx="-772.519" cy="-519.247" r="12.539" fill="#fff"/><circle cx="-772.519" cy="-519.247" r="12.539" stroke="gray" stroke-linecap="round" stroke-linejoin="round"/><path stroke="#000" stroke-linecap="round" stroke-linejoin="round" d="M-850.256-562.984l24.063-17.187M-805.946-579.95l22.382 16.743M-773.177-543.16l.313 11.378M-782.72-511.95l-23.068 16.503M-849.258-511.95l23.07 16.503M-860.116-543.16l.313 11.378M-847.922-555.695h61.86M-848.874-550.893l64.768 26.844M-853.564-545.22l30.68 46.595"/><g><path stroke="#000" stroke-linecap="round" stroke-linejoin="round" d="M-785.07-550.797l-62.84 26.652"/></g><g><path stroke="#000" stroke-linecap="round" stroke-linejoin="round" d="M-780.198-545.077l-29.115 46.31"/></g><g><path stroke="#000" stroke-linecap="round" stroke-linejoin="round" d="M-785.058-519.247h-61.86"/></g><g><path stroke="#000" stroke-linecap="round" stroke-linejoin="round" d="M-779.26-529.824l-29.988-47.06"/></g><g><path stroke="#000" stroke-linecap="round" stroke-linejoin="round" d="M-822.728-576.884l-29.99 47.06"/></g><g><path stroke="#000" stroke-linecap="round" stroke-linejoin="round" d="M-815.988-500.69v-74.232"/></g><g><text transform="translate(-951 -547.03)" fill="#000"><tspan font-family="Helvetica Neue" font-size="16" font-weight="400" x=".472" y="15">Full Mesh</tspan></text></g><g><circle cx="-571.461" cy="-555.695" r="12.539" fill="#fff"/><circle cx="-571.461" cy="-555.695" r="12.539" stroke="gray" stroke-linecap="round" stroke-linejoin="round"/><circle cx="-526.988" cy="-587.461" r="12.539" fill="#fff"/><circle cx="-526.988" cy="-587.461" r="12.539" stroke="gray" stroke-linecap="round" stroke-linejoin="round"/><circle cx="-484.522" cy="-555.695" r="12.539" fill="#fff"/><circle cx="-484.522" cy="-555.695" r="12.539" stroke="gray" stroke-linecap="round" stroke-linejoin="round"/><circle cx="-526.988" cy="-488.15" r="12.539" fill="#fff"/><circle cx="-526.988" cy="-488.15" r="12.539" stroke="gray" stroke-linecap="round" stroke-linejoin="round"/><circle cx="-570.458" cy="-519.247" r="12.539" fill="#fff"/><circle cx="-570.458" cy="-519.247" r="12.539" stroke="gray" stroke-linecap="round" stroke-linejoin="round"/><circle cx="-483.519" cy="-519.247" r="12.539" fill="#fff"/><circle cx="-483.519" cy="-519.247" r="12.539" stroke="gray" stroke-linecap="round" stroke-linejoin="round"/><path stroke="#000" stroke-linecap="round" stroke-linejoin="round" d="M-561.256-562.984l24.063-17.187M-516.946-579.95l22.382 16.743M-484.177-543.16l.313 11.378M-493.72-511.95l-23.068 16.503M-560.258-511.95l23.07 16.503M-571.116-543.16l.313 11.378M-564.564-545.22l30.68 46.595"/><g><path stroke="#000" stroke-linecap="round" stroke-linejoin="round" d="M-496.07-550.797l-62.84 26.652"/></g><g><path stroke="#000" stroke-linecap="round" stroke-linejoin="round" d="M-491.198-545.077l-29.115 46.31"/></g><g><path stroke="#000" stroke-linecap="round" stroke-linejoin="round" d="M-496.058-519.247h-61.86"/></g><g><path stroke="#000" stroke-linecap="round" stroke-linejoin="round" d="M-490.26-529.824l-29.988-47.06"/></g><g><path stroke="#000" stroke-linecap="round" stroke-linejoin="round" d="M-533.728-576.884l-29.99 47.06"/></g><g><path stroke="#000" stroke-linecap="round" stroke-linejoin="round" d="M-526.988-500.69v-74.232"/></g></g><g><text transform="translate(-683 -547.03)" fill="#000"><tspan font-family="Helvetica Neue" font-size="16" font-weight="400" x=".052" y="15">Partial Mesh</tspan></text></g></g></svg>