<svg xmlns="http://www.w3.org/2000/svg" viewBox="-1873.5 -760 669.6036 475.77014" width="669.604" height="475.77"><g fill="none"><title>Canvas 1</title><title>Layer 1</title><circle cx="-1853.672" cy="-648.708" r="19.328" fill="#fff"/><circle cx="-1853.672" cy="-648.708" r="19.328" stroke="gray" stroke-linecap="round" stroke-linejoin="round"/><circle cx="-1785.122" cy="-697.672" r="19.328" fill="#fff"/><circle cx="-1785.122" cy="-697.672" r="19.328" stroke="gray" stroke-linecap="round" stroke-linejoin="round"/><circle cx="-1719.665" cy="-648.708" r="19.328" fill="#fff"/><circle cx="-1719.665" cy="-648.708" r="19.328" stroke="gray" stroke-linecap="round" stroke-linejoin="round"/><circle cx="-1785.122" cy="-544.594" r="19.328" fill="#fff"/><circle cx="-1785.122" cy="-544.594" r="19.328" stroke="gray" stroke-linecap="round" stroke-linejoin="round"/><circle cx="-1852.126" cy="-592.528" r="19.328" fill="#fff"/><circle cx="-1852.126" cy="-592.528" r="19.328" stroke="gray" stroke-linecap="round" stroke-linejoin="round"/><circle cx="-1718.118" cy="-592.528" r="19.328" fill="#fff"/><circle cx="-1718.118" cy="-592.528" r="19.328" stroke="gray" stroke-linecap="round" stroke-linejoin="round"/><path stroke="#000" stroke-linecap="round" stroke-linejoin="round" d="M-1837.942-659.944l37.09-26.492M-1769.643-686.093l34.5 25.806M-1719.133-629.387l.483 17.54M-1733.84-581.28l-35.56 25.438M-1836.404-581.28l35.56 25.438M-1853.14-629.387l.482 17.54M-1834.344-648.708h95.35M-1835.812-641.306l99.834 41.376M-1843.04-632.562l47.287 71.82"/><g><path stroke="#000" stroke-linecap="round" stroke-linejoin="round" d="M-1737.463-641.16l-96.864 41.083"/></g><g><path stroke="#000" stroke-linecap="round" stroke-linejoin="round" d="M-1729.954-632.34l-44.878 71.38"/></g><g><path stroke="#000" stroke-linecap="round" stroke-linejoin="round" d="M-1737.446-592.528h-95.352"/></g><g><path stroke="#000" stroke-linecap="round" stroke-linejoin="round" d="M-1728.508-608.83l-46.225-72.54"/></g><g><path stroke="#000" stroke-linecap="round" stroke-linejoin="round" d="M-1795.51-681.37l-46.226 72.54"/></g><g><path stroke="#000" stroke-linecap="round" stroke-linejoin="round" d="M-1785.122-563.922v-114.422"/></g><g><circle cx="-1419.066" cy="-645.456" r="19.328" fill="#fff"/><circle cx="-1419.066" cy="-645.456" r="19.328" stroke="gray" stroke-linecap="round" stroke-linejoin="round"/><circle cx="-1223.724" cy="-645.456" r="19.328" fill="#fff"/><circle cx="-1223.724" cy="-645.456" r="19.328" stroke="gray" stroke-linecap="round" stroke-linejoin="round"/><circle cx="-1375.514" cy="-591.497" r="14.014" fill="#fff"/><circle cx="-1375.514" cy="-591.497" r="14.014" stroke="gray" stroke-linecap="round" stroke-linejoin="round"/><circle cx="-1339.435" cy="-591.497" r="14.014" fill="#fff"/><circle cx="-1339.435" cy="-591.497" r="14.014" stroke="gray" stroke-linecap="round" stroke-linejoin="round"/><g><circle cx="-1303.356" cy="-591.497" r="14.014" fill="#fff"/><circle cx="-1303.356" cy="-591.497" r="14.014" stroke="gray" stroke-linecap="round" stroke-linejoin="round"/></g><g><circle cx="-1267.277" cy="-591.497" r="14.014" fill="#fff"/><circle cx="-1267.277" cy="-591.497" r="14.014" stroke="gray" stroke-linecap="round" stroke-linejoin="round"/></g><g><path stroke="#000" stroke-linecap="round" stroke-linejoin="round" d="M-1399.738-645.456h156.686"/></g><g><path stroke="#000" stroke-linecap="round" stroke-linejoin="round" d="M-1375.64-605.51l-.363-39.946"/></g><g><path stroke="#000" stroke-linecap="round" stroke-linejoin="round" d="M-1339.52-605.51l-.248-39.946"/></g><g><path stroke="#000" stroke-linecap="round" stroke-linejoin="round" d="M-1303.38-605.51l-.066-39.946"/></g><g><path stroke="#000" stroke-linecap="round" stroke-linejoin="round" d="M-1267.45-605.51l-.5-39.946"/></g></g><g><circle cx="-1565.395" cy="-621.133" r="19.328" fill="#fff"/><circle cx="-1565.395" cy="-621.133" r="19.328" stroke="gray" stroke-linecap="round" stroke-linejoin="round"/><circle cx="-1499.938" cy="-621.133" r="19.328" fill="#fff"/><circle cx="-1499.938" cy="-621.133" r="19.328" stroke="gray" stroke-linecap="round" stroke-linejoin="round"/><circle cx="-1565.395" cy="-686.075" r="19.328" fill="#fff"/><circle cx="-1565.395" cy="-686.075" r="19.328" stroke="gray" stroke-linecap="round" stroke-linejoin="round"/><circle cx="-1565.395" cy="-556.191" r="19.328" fill="#fff"/><circle cx="-1565.395" cy="-556.191" r="19.328" stroke="gray" stroke-linecap="round" stroke-linejoin="round"/><circle cx="-1630.853" cy="-621.133" r="19.328" fill="#fff"/><circle cx="-1630.853" cy="-621.133" r="19.328" stroke="gray" stroke-linecap="round" stroke-linejoin="round"/><g><path stroke="#000" stroke-linecap="round" stroke-linejoin="round" d="M-1611.525-621.133h26.802"/></g><g><path stroke="#000" stroke-linecap="round" stroke-linejoin="round" d="M-1565.395-666.747v26.286"/></g><g><path stroke="#000" stroke-linecap="round" stroke-linejoin="round" d="M-1519.266-621.133h-26.8"/></g><g><path stroke="#000" stroke-linecap="round" stroke-linejoin="round" d="M-1565.395-575.52v-26.285"/></g></g><g><circle cx="-1709.111" cy="-385.938" r="19.328" fill="#fff"/><circle cx="-1709.111" cy="-385.938" r="19.328" stroke="gray" stroke-linecap="round" stroke-linejoin="round"/><circle cx="-1612.757" cy="-456.399" r="19.328" fill="#fff"/><circle cx="-1612.757" cy="-456.399" r="19.328" stroke="gray" stroke-linecap="round" stroke-linejoin="round"/><circle cx="-1675.215" cy="-505.938" r="19.328" fill="#fff"/><circle cx="-1675.215" cy="-505.938" r="19.328" stroke="gray" stroke-linecap="round" stroke-linejoin="round"/><circle cx="-1641.403" cy="-385.938" r="19.328" fill="#fff"/><circle cx="-1641.403" cy="-385.938" r="19.328" stroke="gray" stroke-linecap="round" stroke-linejoin="round"/><circle cx="-1737.672" cy="-456.399" r="19.328" fill="#fff"/><circle cx="-1737.672" cy="-456.399" r="19.328" stroke="gray" stroke-linecap="round" stroke-linejoin="round"/><g><path stroke="#000" stroke-linecap="round" stroke-linejoin="round" d="M-1722.528-468.41l32.17-25.516"/></g><g><path stroke="#000" stroke-linecap="round" stroke-linejoin="round" d="M-1660.07-493.926l32.17 25.515"/></g><g><path stroke="#000" stroke-linecap="round" stroke-linejoin="round" d="M-1620.038-438.49l-14.084 34.642"/></g><g><path stroke="#000" stroke-linecap="round" stroke-linejoin="round" d="M-1660.73-385.938h-29.053"/></g><g><path stroke="#000" stroke-linecap="round" stroke-linejoin="round" d="M-1716.373-403.855l-14.036-34.628"/></g></g><g><circle cx="-1487.105" cy="-463.806" r="12.677" fill="#fff"/><circle cx="-1487.105" cy="-463.806" r="12.677" stroke="gray" stroke-linecap="round" stroke-linejoin="round"/><circle cx="-1444.174" cy="-463.806" r="12.677" fill="#fff"/><circle cx="-1444.174" cy="-463.806" r="12.677" stroke="gray" stroke-linecap="round" stroke-linejoin="round"/><circle cx="-1468.321" cy="-497.806" r="12.677" fill="#fff"/><circle cx="-1468.321" cy="-497.806" r="12.677" stroke="gray" stroke-linecap="round" stroke-linejoin="round"/><circle cx="-1505.889" cy="-497.806" r="12.677" fill="#fff"/><circle cx="-1505.889" cy="-497.806" r="12.677" stroke="gray" stroke-linecap="round" stroke-linejoin="round"/><circle cx="-1530.037" cy="-463.806" r="12.677" fill="#fff"/><circle cx="-1530.037" cy="-463.806" r="12.677" stroke="gray" stroke-linecap="round" stroke-linejoin="round"/><g><path stroke="#000" stroke-linecap="round" stroke-linejoin="round" d="M-1517.36-463.806h17.578"/></g><g><path stroke="#000" stroke-linecap="round" stroke-linejoin="round" d="M-1474.453-486.707l-6.52 11.803"/></g><g><path stroke="#000" stroke-linecap="round" stroke-linejoin="round" d="M-1456.85-463.806h-17.58"/></g><g><path stroke="#000" stroke-linecap="round" stroke-linejoin="round" d="M-1499.758-486.707l6.52 11.803"/></g><g><path d="M-1551.213-432.982h253.997l-1.71-.056" stroke="#000" stroke-linecap="round" stroke-linejoin="round"/></g><g><path stroke="#000" stroke-linecap="round" stroke-linejoin="round" d="M-1487.068-451.13l.053 18.148"/></g><g><circle cx="-1355.605" cy="-458.306" r="12.677" fill="#fff"/><circle cx="-1355.605" cy="-458.306" r="12.677" stroke="gray" stroke-linecap="round" stroke-linejoin="round"/><circle cx="-1312.674" cy="-458.306" r="12.677" fill="#fff"/><circle cx="-1312.674" cy="-458.306" r="12.677" stroke="gray" stroke-linecap="round" stroke-linejoin="round"/><circle cx="-1336.821" cy="-492.306" r="12.677" fill="#fff"/><circle cx="-1336.821" cy="-492.306" r="12.677" stroke="gray" stroke-linecap="round" stroke-linejoin="round"/><circle cx="-1374.389" cy="-492.306" r="12.677" fill="#fff"/><circle cx="-1374.389" cy="-492.306" r="12.677" stroke="gray" stroke-linecap="round" stroke-linejoin="round"/><circle cx="-1398.537" cy="-458.306" r="12.677" fill="#fff"/><circle cx="-1398.537" cy="-458.306" r="12.677" stroke="gray" stroke-linecap="round" stroke-linejoin="round"/><g><path stroke="#000" stroke-linecap="round" stroke-linejoin="round" d="M-1385.86-458.306h17.578"/></g><g><path stroke="#000" stroke-linecap="round" stroke-linejoin="round" d="M-1342.953-481.207l-6.52 11.803"/></g><g><path stroke="#000" stroke-linecap="round" stroke-linejoin="round" d="M-1325.35-458.306h-17.58"/></g><g><path stroke="#000" stroke-linecap="round" stroke-linejoin="round" d="M-1368.258-481.207l6.52 11.803"/></g></g><g><circle cx="-1420.105" cy="-401.27" r="12.677" fill="#fff"/><circle cx="-1420.105" cy="-401.27" r="12.677" stroke="gray" stroke-linecap="round" stroke-linejoin="round"/><circle cx="-1377.174" cy="-401.27" r="12.677" fill="#fff"/><circle cx="-1377.174" cy="-401.27" r="12.677" stroke="gray" stroke-linecap="round" stroke-linejoin="round"/><circle cx="-1401.321" cy="-367.77" r="12.677" fill="#fff"/><circle cx="-1401.321" cy="-367.77" r="12.677" stroke="gray" stroke-linecap="round" stroke-linejoin="round"/><circle cx="-1438.889" cy="-367.77" r="12.677" fill="#fff"/><circle cx="-1438.889" cy="-367.77" r="12.677" stroke="gray" stroke-linecap="round" stroke-linejoin="round"/><circle cx="-1463.037" cy="-401.27" r="12.677" fill="#fff"/><circle cx="-1463.037" cy="-401.27" r="12.677" stroke="gray" stroke-linecap="round" stroke-linejoin="round"/><g><path stroke="#000" stroke-linecap="round" stroke-linejoin="round" d="M-1450.36-401.27h17.578"/></g><g><path stroke="#000" stroke-linecap="round" stroke-linejoin="round" d="M-1407.523-378.83l-6.38-11.38"/></g><g><path stroke="#000" stroke-linecap="round" stroke-linejoin="round" d="M-1389.85-401.27h-17.58"/></g><g><path stroke="#000" stroke-linecap="round" stroke-linejoin="round" d="M-1432.688-378.83l6.38-11.38"/></g></g><g><path stroke="#000" stroke-linecap="round" stroke-linejoin="round" d="M-1420.578-413.937l-.71-19.045"/></g><g><path stroke="#000" stroke-linecap="round" stroke-linejoin="round" d="M-1355.495-445.63l.11 12.648"/></g></g><g><text transform="translate(-1806 -754.224)" fill="#000"><tspan font-family="Helvetica Neue" font-size="16" font-weight="400" x=".288" y="15">Mesh</tspan></text></g><g><text transform="translate(-1580.5 -754.224)" fill="#000"><tspan font-family="Helvetica Neue" font-size="16" font-weight="400" x=".336" y="15">Star</tspan></text></g><g><text transform="translate(-1335.5 -754.224)" fill="#000"><tspan font-family="Helvetica Neue" font-size="16" font-weight="400" x=".072" y="15">Bus</tspan></text></g><g><text transform="translate(-1689.715 -308.454)" fill="#000"><tspan font-family="Helvetica Neue" font-size="16" font-weight="400" x=".204" y="15">Ring</tspan></text></g><g><text transform="translate(-1439.215 -308.454)" fill="#000"><tspan font-family="Helvetica Neue" font-size="16" font-weight="400" x=".032" y="15">Tree</tspan></text></g></g></svg>