<svg xmlns="http://www.w3.org/2000/svg" viewBox="-971.0582 -445.5 500.57847 128.07847" width="500.578" height="128.078"><defs><marker orient="auto" overflow="visible" id="a" stroke-miterlimit="10" viewBox="-1 -3 6 6" markerWidth="6" markerHeight="6" color="#000"><path d="M4 0L0-1.5v3z" fill="currentColor" stroke="currentColor"/></marker><marker orient="auto" overflow="visible" id="b" stroke-miterlimit="10" viewBox="-5 -3 6 6" markerWidth="6" markerHeight="6" color="#000"><path d="M-4 0l4 1.5v-3z" fill="currentColor" stroke="currentColor"/></marker></defs><g fill="none"><title>Canvas 1</title><title>Layer 1</title><circle cx="-854.519" cy="-400.695" r="12.539" fill="#fff"/><circle cx="-854.519" cy="-400.695" r="12.539" stroke="gray" stroke-linecap="round" stroke-linejoin="round"/><circle cx="-810.047" cy="-432.461" r="12.539" fill="#fff"/><circle cx="-810.047" cy="-432.461" r="12.539" stroke="gray" stroke-linecap="round" stroke-linejoin="round"/><circle cx="-767.58" cy="-400.695" r="12.539" fill="#fff"/><circle cx="-767.58" cy="-400.695" r="12.539" stroke="gray" stroke-linecap="round" stroke-linejoin="round"/><circle cx="-810.047" cy="-331.461" r="12.539" fill="#fff"/><circle cx="-810.047" cy="-331.461" r="12.539" stroke="gray" stroke-linecap="round" stroke-linejoin="round"/><circle cx="-853.519" cy="-358.461" r="12.539" fill="#fff"/><circle cx="-853.519" cy="-358.461" r="12.539" stroke="gray" stroke-linecap="round" stroke-linejoin="round"/><circle cx="-766.519" cy="-358.461" r="12.539" fill="#fff"/><circle cx="-766.519" cy="-358.461" r="12.539" stroke="gray" stroke-linecap="round" stroke-linejoin="round"/><path marker-end="url(#a)" stroke="#000" stroke-linecap="round" stroke-linejoin="round" d="M-844.314-407.984l19.26-13.758M-800.004-424.95l17.657 13.21M-767.265-388.16l.283 11.266M-777.177-351.85l-17.198 10.668"/><path marker-start="url(#b)" stroke="#000" stroke-linecap="round" stroke-linejoin="round" d="M-837.853-348.73l17.152 10.652M-854.082-382.26l.266 11.263"/><text transform="translate(-971.058 -401.253)" fill="#000"><tspan font-family="Helvetica Neue" font-size="16" font-weight="400" x=".46" y="15">Unidirectional</tspan> <tspan font-family="Helvetica Neue" font-size="16" font-weight="400" x="33.204" y="33.448">Ring</tspan></text><circle cx="-571.519" cy="-399.695" r="12.539" fill="#fff"/><circle cx="-571.519" cy="-399.695" r="12.539" stroke="gray" stroke-linecap="round" stroke-linejoin="round"/><circle cx="-527.046" cy="-431.461" r="12.539" fill="#fff"/><circle cx="-527.046" cy="-431.461" r="12.539" stroke="gray" stroke-linecap="round" stroke-linejoin="round"/><circle cx="-484.58" cy="-399.695" r="12.539" fill="#fff"/><circle cx="-484.58" cy="-399.695" r="12.539" stroke="gray" stroke-linecap="round" stroke-linejoin="round"/><circle cx="-527.046" cy="-330.461" r="12.539" fill="#fff"/><circle cx="-527.046" cy="-330.461" r="12.539" stroke="gray" stroke-linecap="round" stroke-linejoin="round"/><g><circle cx="-570.519" cy="-357.461" r="12.539" fill="#fff"/><circle cx="-570.519" cy="-357.461" r="12.539" stroke="gray" stroke-linecap="round" stroke-linejoin="round"/></g><g><circle cx="-483.519" cy="-357.461" r="12.539" fill="#fff"/><circle cx="-483.519" cy="-357.461" r="12.539" stroke="gray" stroke-linecap="round" stroke-linejoin="round"/></g><g><path marker-end="url(#a)" marker-start="url(#b)" stroke="#000" stroke-linecap="round" stroke-linejoin="round" d="M-556.513-410.413l14.46-10.33"/></g><g><path marker-end="url(#a)" marker-start="url(#b)" stroke="#000" stroke-linecap="round" stroke-linejoin="round" d="M-512.28-420.415l12.933 9.674"/></g><g><path marker-end="url(#a)" marker-start="url(#b)" stroke="#000" stroke-linecap="round" stroke-linejoin="round" d="M-484.117-381.26l.135 5.366"/></g><g><path marker-end="url(#a)" marker-start="url(#b)" stroke="#000" stroke-linecap="round" stroke-linejoin="round" d="M-499.19-347.74l-12.185 7.558"/></g><g><path marker-end="url(#a)" marker-start="url(#b)" stroke="#000" stroke-linecap="round" stroke-linejoin="round" d="M-554.853-347.73l12.14 7.54"/></g><g><path marker-end="url(#a)" marker-start="url(#b)" stroke="#000" stroke-linecap="round" stroke-linejoin="round" d="M-571.082-381.26l.127 5.365"/></g><g><text transform="translate(-683.058 -400.253)" fill="#000"><tspan font-family="Helvetica Neue" font-size="16" font-weight="400" x=".204" y="15">Bidirectional</tspan> <tspan font-family="Helvetica Neue" font-size="16" font-weight="400" x="28.204" y="33.448">Ring</tspan></text></g></g></svg>