<svg xmlns="http://www.w3.org/2000/svg" viewBox="-1048.0925 590.7 927.5925 372.08607" width="927.592" height="372.086"><defs><marker orient="auto" overflow="visible" id="a" stroke-miterlimit="10" viewBox="-1 -4 10 8" markerWidth="10" markerHeight="8" color="#000"><path d="M8 0L0-3v6z" fill="currentColor" stroke="currentColor"/></marker></defs><g fill="none"><title>Canvas 1</title><title>Layer 1</title><path fill="#fff" d="M-1047.592 591.2h139v47h-139z"/><path stroke="gray" stroke-linecap="round" stroke-linejoin="round" d="M-1047.592 591.2h139v47h-139z"/><text transform="translate(-1042.592 605.476)" fill="#000"><tspan font-family="Helvetica Neue" font-size="16" font-weight="400" x="8.34" y="15">Application.app</tspan></text><path fill="#fff" d="M-1047.592 697.08h269.342V893.17h-269.342z"/><path stroke="#000" stroke-linecap="round" stroke-linejoin="round" d="M-1047.592 697.08h269.342V893.17h-269.342z"/><path fill="#fff" d="M-1047.592 697.08h269.342v18.31h-269.342z"/><path stroke="#000" stroke-linecap="round" stroke-linejoin="round" d="M-1047.592 697.08h269.342v18.31h-269.342z"/><circle cx="-1038.513" cy="706.235" r="5.265" fill="#fff"/><circle cx="-1038.513" cy="706.235" r="5.265" stroke="gray" stroke-linecap="round" stroke-linejoin="round"/><circle cx="-1026.305" cy="706.235" r="5.265" fill="#fff"/><circle cx="-1026.305" cy="706.235" r="5.265" stroke="gray" stroke-linecap="round" stroke-linejoin="round"/><circle cx="-1014.096" cy="706.235" r="5.265" fill="#fff"/><circle cx="-1014.096" cy="706.235" r="5.265" stroke="gray" stroke-linecap="round" stroke-linejoin="round"/><text transform="translate(-1042.592 670.22)" fill="#000"><tspan font-family="Helvetica Neue" font-size="16" font-weight="400" x="1.96" y="15">Application.app: Document 1</tspan></text><g><path fill="#fff" d="M-1014 761.08h269.342V957.17H-1014z"/><path stroke="#000" stroke-linecap="round" stroke-linejoin="round" d="M-1014 761.08h269.342V957.17H-1014z"/><path fill="#fff" d="M-1014 761.08h269.342v18.31H-1014z"/><path stroke="#000" stroke-linecap="round" stroke-linejoin="round" d="M-1014 761.08h269.342v18.31H-1014z"/><circle cx="-1004.92" cy="770.235" r="5.265" fill="#fff"/><circle cx="-1004.92" cy="770.235" r="5.265" stroke="gray" stroke-linecap="round" stroke-linejoin="round"/><g><circle cx="-992.712" cy="770.235" r="5.265" fill="#fff"/><circle cx="-992.712" cy="770.235" r="5.265" stroke="gray" stroke-linecap="round" stroke-linejoin="round"/></g><g><circle cx="-980.504" cy="770.235" r="5.265" fill="#fff"/><circle cx="-980.504" cy="770.235" r="5.265" stroke="gray" stroke-linecap="round" stroke-linejoin="round"/></g><g><text transform="translate(-1009 734.22)" fill="#000"><tspan font-family="Helvetica Neue" font-size="16" font-weight="400" x="1.96" y="15">Application.app: Document 2</tspan></text></g></g><g><path marker-end="url(#a)" stroke="#000" stroke-linecap="round" stroke-linejoin="round" d="M-727.843 817.2h41.1"/></g><g><path fill="#fff" d="M-653 591.2h139v47h-139z"/><path stroke="gray" stroke-linecap="round" stroke-linejoin="round" d="M-653 591.2h139v47h-139z"/><text transform="translate(-648 605.476)" fill="#000"><tspan font-family="Helvetica Neue" font-size="16" font-weight="400" x="8.34" y="15">Application.app</tspan></text></g><g><path fill="#fff" d="M-653.12 702.193h269.34v196.093h-269.34z"/><path stroke="#000" stroke-linecap="round" stroke-linejoin="round" d="M-653.12 702.193h269.34v196.093h-269.34z"/><path fill="#fff" d="M-653.12 702.193h269.34v18.312h-269.34z"/><path stroke="#000" stroke-linecap="round" stroke-linejoin="round" d="M-653.12 702.193h269.34v18.312h-269.34z"/><circle cx="-644.041" cy="711.349" r="5.265" fill="#fff"/><circle cx="-644.041" cy="711.349" r="5.265" stroke="gray" stroke-linecap="round" stroke-linejoin="round"/><g><circle cx="-631.833" cy="711.349" r="5.265" fill="#fff"/><circle cx="-631.833" cy="711.349" r="5.265" stroke="gray" stroke-linecap="round" stroke-linejoin="round"/></g><g><circle cx="-619.625" cy="711.349" r="5.265" fill="#fff"/><circle cx="-619.625" cy="711.349" r="5.265" stroke="gray" stroke-linecap="round" stroke-linejoin="round"/></g><g><text transform="translate(-648.12 675.335)" fill="#000"><tspan font-family="Helvetica Neue" font-size="16" font-weight="400" x="1.96" y="15">Application.app: Document 1</tspan></text></g></g><g><path d="M-655 897.5l271.22-195.647" stroke="#b1001c" stroke-linecap="round" stroke-linejoin="round"/></g><g><path stroke="#b1001c" stroke-linecap="round" stroke-linejoin="round" d="M-653 702l269.22 204.106"/></g><g><path fill="#fff" d="M-619.528 766.193h269.342v196.093h-269.342z"/><path stroke="#000" stroke-linecap="round" stroke-linejoin="round" d="M-619.528 766.193h269.342v196.093h-269.342z"/><path fill="#fff" d="M-619.528 766.193h269.342v18.312h-269.342z"/><path stroke="#000" stroke-linecap="round" stroke-linejoin="round" d="M-619.528 766.193h269.342v18.312h-269.342z"/><circle cx="-610.449" cy="775.349" r="5.265" fill="#fff"/><circle cx="-610.449" cy="775.349" r="5.265" stroke="gray" stroke-linecap="round" stroke-linejoin="round"/><g><circle cx="-598.24" cy="775.349" r="5.265" fill="#fff"/><circle cx="-598.24" cy="775.349" r="5.265" stroke="gray" stroke-linecap="round" stroke-linejoin="round"/></g><g><circle cx="-586.032" cy="775.349" r="5.265" fill="#fff"/><circle cx="-586.032" cy="775.349" r="5.265" stroke="gray" stroke-linecap="round" stroke-linejoin="round"/></g><g><text transform="translate(-614.528 739.335)" fill="#000"><tspan font-family="Helvetica Neue" font-size="16" font-weight="400" x="1.96" y="15">Application.app: Document 2</tspan></text></g></g><g><path stroke="#b1001c" stroke-linecap="round" stroke-linejoin="round" d="M-620 766l.067.05"/></g><g><path d="M-619.5 766.5l269.342 195.418-.03-56.03" stroke="#b1001c" stroke-linecap="round" stroke-linejoin="round"/></g><g><path d="M-619.5 961.5l269.342-195.163" stroke="#b1001c" stroke-linecap="round" stroke-linejoin="round"/></g><g><path marker-end="url(#a)" stroke="#000" stroke-linecap="round" stroke-linejoin="round" d="M-336 817h41.1"/></g><g><path fill="#fff" d="M-260 800h139v47h-139z"/><path stroke="gray" stroke-linecap="round" stroke-linejoin="round" d="M-260 800h139v47h-139z"/><text transform="translate(-255 814.276)" fill="#000"><tspan font-family="Helvetica Neue" font-size="16" font-weight="400" x="8.34" y="15">Application.app</tspan></text></g></g></svg>