<svg xmlns="http://www.w3.org/2000/svg" viewBox="-741.5 -359 758 296.5" width="758" height="296.5"><g fill="none"><title>Canvas 1</title><title>Layer 1</title><path fill="#fff" d="M-741-320h353v257h-353z"/><path stroke="#000" stroke-linecap="round" stroke-linejoin="round" d="M-741-320h353v257h-353z"/><path fill="#fff" d="M-741-320h353v24h-353z"/><path stroke="#000" stroke-linecap="round" stroke-linejoin="round" d="M-741-320h353v24h-353z"/><path fill="#fff" d="M-423.8-312.85h14.6v9.7h-14.6z"/><path stroke="#000" stroke-linecap="round" stroke-linejoin="round" d="M-423.8-312.85h14.6v9.7h-14.6z"/><text transform="translate(-402.6 -318.024)" fill="#000"><tspan font-family="Helvetica Neue" font-size="16" font-weight="400" x=".356" y="15">x</tspan></text><g><path stroke="#000" stroke-linecap="round" stroke-linejoin="round" d="M-443-303.4h12.178"/></g><g><text transform="translate(-736 -353.732)" fill="#000"><tspan font-family="Helvetica Neue" font-size="16" font-weight="700" x=".02" y="16">SDI</tspan></text></g><g><path fill="#fff" d="M-337-320H16v257h-353z"/><path stroke="#000" stroke-linecap="round" stroke-linejoin="round" d="M-337-320H16v257h-353z"/><path fill="#fff" d="M-337-320H16v24h-353z"/><path stroke="#000" stroke-linecap="round" stroke-linejoin="round" d="M-337-320H16v24h-353z"/><path fill="#fff" d="M-19.8-312.85h14.6v9.7h-14.6z"/><path stroke="#000" stroke-linecap="round" stroke-linejoin="round" d="M-19.8-312.85h14.6v9.7h-14.6z"/><g><text transform="translate(1.4 -318.024)" fill="#000"><tspan font-family="Helvetica Neue" font-size="16" font-weight="400" x=".356" y="15">x</tspan></text></g><g><path stroke="#000" stroke-linecap="round" stroke-linejoin="round" d="M-39-303.4h12.178"/></g></g><g><path fill="#fff" d="M-276.594-276.103h176.19v128.273h-176.19z"/><path stroke="#000" stroke-linecap="round" stroke-linejoin="round" d="M-276.594-276.103h176.19v128.273h-176.19z"/><path fill="#fff" d="M-276.594-276.103h176.19v11.98h-176.19z"/><path stroke="#000" stroke-linecap="round" stroke-linejoin="round" d="M-276.594-276.103h176.19v11.98h-176.19z"/><path fill="#fff" d="M-118.274-272.535h7.287v4.84h-7.287z"/><path stroke="#000" stroke-linecap="round" stroke-linejoin="round" d="M-118.274-272.535h7.287v4.84h-7.287z"/><g><text transform="translate(-109.188 -279.737)" fill="#000"><tspan font-family="Helvetica Neue" font-size="16" font-weight="400" x=".356" y="15">x</tspan></text></g><g><path stroke="#000" stroke-linecap="round" stroke-linejoin="round" d="M-127.857-267.818h6.078"/></g></g><g><path fill="#fff" d="M-248.594-247.588h176.19v128.273h-176.19z"/><path stroke="#000" stroke-linecap="round" stroke-linejoin="round" d="M-248.594-247.588h176.19v128.273h-176.19z"/><path fill="#fff" d="M-248.594-247.588h176.19v11.98h-176.19z"/><path stroke="#000" stroke-linecap="round" stroke-linejoin="round" d="M-248.594-247.588h176.19v11.98h-176.19z"/><path fill="#fff" d="M-90.274-244.02h7.287v4.84h-7.287z"/><path stroke="#000" stroke-linecap="round" stroke-linejoin="round" d="M-90.274-244.02h7.287v4.84h-7.287z"/><g><text transform="translate(-81.188 -251.222)" fill="#000"><tspan font-family="Helvetica Neue" font-size="16" font-weight="400" x=".356" y="15">x</tspan></text></g><g><path stroke="#000" stroke-linecap="round" stroke-linejoin="round" d="M-99.857-239.303h6.078"/></g></g><g><path fill="#fff" d="M-220.594-216.103h176.19V-87.83h-176.19z"/><path stroke="#000" stroke-linecap="round" stroke-linejoin="round" d="M-220.594-216.103h176.19V-87.83h-176.19z"/><path fill="#fff" d="M-220.594-216.103h176.19v11.98h-176.19z"/><path stroke="#000" stroke-linecap="round" stroke-linejoin="round" d="M-220.594-216.103h176.19v11.98h-176.19z"/><path fill="#fff" d="M-62.274-212.535h7.287v4.84h-7.287z"/><path stroke="#000" stroke-linecap="round" stroke-linejoin="round" d="M-62.274-212.535h7.287v4.84h-7.287z"/><g><text transform="translate(-53.188 -219.737)" fill="#000"><tspan font-family="Helvetica Neue" font-size="16" font-weight="400" x=".356" y="15">x</tspan></text></g><g><path stroke="#000" stroke-linecap="round" stroke-linejoin="round" d="M-71.857-207.818h6.078"/></g></g><g><text transform="translate(-334.5 -353.732)" fill="#000"><tspan font-family="Helvetica Neue" font-size="16" font-weight="700" x=".456" y="16">MDI</tspan></text></g></g></svg>