<svg xmlns="http://www.w3.org/2000/svg" viewBox="-1049.3792 1138.5 929.4717 371.3" width="929.472" height="371.3"><defs><marker orient="auto" overflow="visible" id="a" stroke-miterlimit="10" viewBox="-1 -4 10 8" markerWidth="10" markerHeight="8" color="#000"><path d="M8 0L0-3v6z" fill="currentColor" stroke="currentColor"/></marker></defs><g fill="none"><title>Canvas 1</title><title>Layer 1</title><path fill="#fff" d="M-1047 1139h139v47h-139z"/><path stroke="gray" stroke-linecap="round" stroke-linejoin="round" d="M-1047 1139h139v47h-139z"/><text transform="translate(-1042 1153.276)" fill="#000"><tspan font-family="Helvetica Neue" font-size="16" font-weight="400" x="9.388" y="15">Application.exe</tspan></text><path fill="#fff" d="M-1048.88 1245.655h271.222v197.46h-271.22z"/><path stroke="#000" stroke-linecap="round" stroke-linejoin="round" d="M-1048.88 1245.655h271.222v197.46h-271.22z"/><path fill="#fff" d="M-1048.88 1245.655h271.222v18.44h-271.22z"/><path stroke="#000" stroke-linecap="round" stroke-linejoin="round" d="M-1048.88 1245.655h271.222v18.44h-271.22z"/><path fill="#fff" d="M-805.165 1251.15h11.218v7.452h-11.218z"/><path stroke="#000" stroke-linecap="round" stroke-linejoin="round" d="M-805.165 1251.15h11.218v7.452h-11.218z"/><text transform="translate(-789.718 1245.036)" fill="#000"><tspan font-family="Helvetica Neue" font-size="16" font-weight="400" x=".356" y="15">x</tspan></text><path stroke="#000" stroke-linecap="round" stroke-linejoin="round" d="M-819.917 1258.41h9.357"/><path fill="#fff" d="M-1013.298 1309.765h271.22v197.46h-271.22z"/><path stroke="#000" stroke-linecap="round" stroke-linejoin="round" d="M-1013.298 1309.765h271.22v197.46h-271.22z"/><path fill="#fff" d="M-1013.298 1309.765h271.22v18.44h-271.22z"/><path stroke="#000" stroke-linecap="round" stroke-linejoin="round" d="M-1013.298 1309.765h271.22v18.44h-271.22z"/><path fill="#fff" d="M-769.583 1315.26h11.218v7.452h-11.218z"/><path stroke="#000" stroke-linecap="round" stroke-linejoin="round" d="M-769.583 1315.26h11.218v7.452h-11.218z"/><g><text transform="translate(-754.136 1309.146)" fill="#000"><tspan font-family="Helvetica Neue" font-size="16" font-weight="400" x=".356" y="15">x</tspan></text></g><g><path stroke="#000" stroke-linecap="round" stroke-linejoin="round" d="M-784.335 1322.52h9.357"/></g><g><text transform="translate(-1042 1218.02)" fill="#000"><tspan font-family="Helvetica Neue" font-size="16" font-weight="400" x="3.008" y="15">Application.exe: Document 1</tspan></text></g><g><text transform="translate(-1008.408 1282.02)" fill="#000"><tspan font-family="Helvetica Neue" font-size="16" font-weight="400" x="3.008" y="15">Application.exe: Document 2</tspan></text></g><g><path marker-end="url(#a)" stroke="#000" stroke-linecap="round" stroke-linejoin="round" d="M-727.25 1365h41.1"/></g><g><path fill="#fff" d="M-652.408 1139h139v47h-139z"/><path stroke="gray" stroke-linecap="round" stroke-linejoin="round" d="M-652.408 1139h139v47h-139z"/><text transform="translate(-647.408 1153.276)" fill="#000"><tspan font-family="Helvetica Neue" font-size="16" font-weight="400" x="9.388" y="15">Application.exe</tspan></text></g><g><path fill="#fff" d="M-259.408 1347.8h139v47h-139z"/><path stroke="gray" stroke-linecap="round" stroke-linejoin="round" d="M-259.408 1347.8h139v47h-139z"/><text transform="translate(-254.408 1362.076)" fill="#000"><tspan font-family="Helvetica Neue" font-size="16" font-weight="400" x="9.388" y="15">Application.exe</tspan></text></g><g><path fill="#fff" d="M-652.408 1245.855h271.22v197.46h-271.22z"/><path stroke="#000" stroke-linecap="round" stroke-linejoin="round" d="M-652.408 1245.855h271.22v197.46h-271.22z"/><path fill="#fff" d="M-652.408 1245.855h271.22v18.44h-271.22z"/><path stroke="#000" stroke-linecap="round" stroke-linejoin="round" d="M-652.408 1245.855h271.22v18.44h-271.22z"/><path fill="#fff" d="M-408.693 1251.35h11.218v7.452h-11.218z"/><path stroke="#000" stroke-linecap="round" stroke-linejoin="round" d="M-408.693 1251.35h11.218v7.452h-11.218z"/><g><text transform="translate(-393.246 1245.236)" fill="#000"><tspan font-family="Helvetica Neue" font-size="16" font-weight="400" x=".356" y="15">x</tspan></text></g><g><path stroke="#000" stroke-linecap="round" stroke-linejoin="round" d="M-423.445 1258.61h9.357"/></g></g><g><path d="M-654.408 1445.3l271.22-195.647" stroke="#b1001c" stroke-linecap="round" stroke-linejoin="round"/></g><g><path stroke="#b1001c" stroke-linecap="round" stroke-linejoin="round" d="M-652.408 1249.8l269.22 204.107"/></g><g><path fill="#fff" d="M-616.826 1309.965h271.22v197.46h-271.22z"/><path stroke="#000" stroke-linecap="round" stroke-linejoin="round" d="M-616.826 1309.965h271.22v197.46h-271.22z"/><path fill="#fff" d="M-616.826 1309.965h271.22v18.44h-271.22z"/><path stroke="#000" stroke-linecap="round" stroke-linejoin="round" d="M-616.826 1309.965h271.22v18.44h-271.22z"/><path fill="#fff" d="M-373.11 1315.46h11.217v7.452h-11.218z"/><path stroke="#000" stroke-linecap="round" stroke-linejoin="round" d="M-373.11 1315.46h11.217v7.452h-11.218z"/><g><text transform="translate(-357.664 1309.346)" fill="#000"><tspan font-family="Helvetica Neue" font-size="16" font-weight="400" x=".356" y="15">x</tspan></text></g><g><path stroke="#000" stroke-linecap="round" stroke-linejoin="round" d="M-387.863 1322.72h9.356"/></g></g><g><path stroke="#b1001c" stroke-linecap="round" stroke-linejoin="round" d="M-618.908 1314.3l273.303 191.908"/></g><g><path d="M-618.908 1509.3l269.342-195.163" stroke="#b1001c" stroke-linecap="round" stroke-linejoin="round"/></g><g><path marker-end="url(#a)" stroke="#000" stroke-linecap="round" stroke-linejoin="round" d="M-335.408 1364.8h41.1"/></g><g><text transform="translate(-645.528 1218.22)" fill="#000"><tspan font-family="Helvetica Neue" font-size="16" font-weight="400" x="3.008" y="15">Application.exe: Document 1</tspan></text></g><g><text transform="translate(-611.936 1282.22)" fill="#000"><tspan font-family="Helvetica Neue" font-size="16" font-weight="400" x="3.008" y="15">Application.exe: Document 2</tspan></text></g><g><path d="M-259.5 1347l139 47.638h.092" stroke="#b1001c" stroke-linecap="round" stroke-linejoin="round"/></g><g><path stroke="#b1001c" stroke-linecap="round" stroke-linejoin="round" d="M-259 1395l138.592-46.742"/></g></g></svg>