<?xml version="1.0" encoding="UTF-8" standalone="no"?><!DOCTYPE svg PUBLIC "-//W3C//DTD SVG 1.1//EN" "http://www.w3.org/Graphics/SVG/1.1/DTD/svg11.dtd"><svg width="100%" height="100%" viewBox="0 0 32 32" version="1.1" xmlns="http://www.w3.org/2000/svg" xmlns:xlink="http://www.w3.org/1999/xlink" xml:space="preserve" xmlns:serif="http://www.serif.com/" style="fill-rule:evenodd;clip-rule:evenodd;stroke-linejoin:round;stroke-miterlimit:1.41421;"><path id="surface1" d="M24.398,14.8l-0.199,-0.3c0,-2.398 -1.097,-3.3 -2.3,-4c0.402,-0.102 0.8,-0.2 0.902,-0.7c0.699,-0.198 0.8,-0.5 0.898,-0.8c0.2,-0.102 0.7,-0.398 0.7,-1c0.3,-0.2 0.5,-0.5 0.402,-0.898c0.3,-0.403 0.398,-0.704 0.3,-1c0.399,-0.5 0.2,-0.801 0.098,-1.102c0.301,-0.602 0,-1.2 -0.8,-1.102c-0.297,-0.5 -1.098,-0.398 -1.2,-0.398c-0.097,-0.2 -0.3,-0.3 -0.8,-0.2c-0.5,-0.3 -0.899,-0.3 -1.297,-0.1c-0.5,-0.4 -0.801,-0.098 -1.102,0c-0.602,-0.2 -0.7,0.1 -1,0.198c-0.602,-0.097 -0.8,0.204 -1.102,0.5l-0.296,0c-0.903,0.5 -1.403,1.704 -1.602,2.204c-0.2,-0.602 -0.602,-1.704 -1.602,-2.204l-0.296,0c-0.301,-0.296 -0.5,-0.597 -1.102,-0.5c-0.3,-0.097 -0.398,-0.398 -1,-0.199c-0.2,-0.097 -0.398,-0.199 -0.7,-0.199c-0.1,0 -0.198,0.102 -0.402,0.2c-0.398,-0.2 -0.796,-0.2 -1.097,0.1c-0.5,-0.1 -0.7,0.098 -0.801,0.2c-0.102,0 -0.898,-0.102 -1.2,0.398c-0.902,-0.097 -1.198,0.5 -0.902,1.102c-0.199,0.3 -0.296,0.5 0.102,1.102c-0.2,0.199 -0.102,0.597 0.3,0.898c-0.1,0.398 0,0.7 0.4,1c-0.098,0.5 0.5,0.8 0.6,1c0.098,0.3 0.2,0.602 0.9,0.8c0.1,0.5 0.5,0.598 0.902,0.7c-1.301,0.7 -2.301,1.7 -2.301,4l-0.2,0.3c-1.402,0.9 -2.703,3.7 -0.703,6c0.102,0.7 0.301,1.2 0.5,1.802c0.301,2.296 2.204,3.398 2.704,3.5c0.699,0.597 1.5,1.097 2.597,1.5c1,1 2.102,1.398 3.2,1.398c1.101,0 2.203,-0.398 3.203,-1.398c1.097,-0.403 1.898,-0.903 2.597,-1.5c0.5,-0.102 2.403,-1.204 2.7,-3.5c0.202,-0.602 0.401,-1.102 0.601,-1.802c2.2,-2.301 0.898,-5.102 -0.602,-6Zm-1.296,-0.402c-0.102,1 -4.903,-3.296 -4.102,-3.398c2.3,-0.398 4.2,0.898 4.102,3.398Zm-5.302,-9.898c0,0.2 0.097,0.3 0.097,0.398c0.301,-0.296 0.5,-0.597 0.801,-0.898c0,0.2 -0.097,0.3 0.102,0.5c0.199,-0.3 0.398,-0.5 0.8,-0.7c-0.203,0.302 0,0.4 0.098,0.5c0.301,-0.198 0.5,-0.402 1,-0.6c-0.097,0.198 -0.3,0.3 -0.097,0.5c0.296,-0.2 0.5,-0.302 1.199,-0.5c-0.102,0.198 -0.403,0.3 -0.301,0.5c0.3,-0.098 0.7,-0.2 1.102,-0.302c-0.204,0.204 -0.403,0.301 -0.204,0.403c0.403,-0.102 0.801,-0.301 1.301,-0.102l-0.3,0.301l1.203,0c-0.204,0.3 -0.403,0.5 -0.5,0.898l0.5,0c-0.204,0.602 -0.602,0.704 -0.704,0.903c0.102,0.097 0.301,0.097 0.602,0c-0.2,0.398 -0.5,0.597 -0.8,0.898c0.1,0.102 0.198,0.102 0.5,0c-0.302,0.301 -0.598,0.5 -0.9,0.801c0.098,0.102 0.302,0.102 0.5,0.102c-0.3,0.296 -0.8,0.5 -1.198,0.699c0.097,0.199 0.296,0.097 0.398,0.097c-0.3,0.204 -0.8,0.403 -1.2,0.5c0.098,0.102 0.2,0.204 0.4,0.204c-0.5,0.296 -1.2,0.097 -1.4,0.296c0,0.102 0.2,0.204 0.302,0.301c-0.801,0 -2.903,0 -3.301,-1.597c0.8,-0.903 2.199,-1.903 4.699,-3.204c-1.898,0.704 -3.7,1.5 -5.102,2.704c-1.597,-0.801 -0.5,-2.801 0.403,-3.602Zm-1.8,5.8c1.2,0 2.7,0.9 2.7,1.802c0,0.796 -1.098,1.398 -2.7,1.398c-1.602,0 -2.7,-0.8 -2.7,-1.5c0,-0.7 1.302,-1.7 2.7,-1.7Zm-6.102,-0.6c0.204,0 0.301,-0.098 0.403,-0.2c-0.5,-0.2 -1,-0.3 -1.301,-0.602c0.2,0 0.3,0 0.5,-0.097c-0.398,-0.2 -0.8,-0.403 -1.2,-0.7c0.2,0 0.4,0 0.5,-0.101c-0.3,-0.2 -0.6,-0.5 -0.902,-0.7l0.5,0c-0.296,-0.402 -0.597,-0.6 -0.796,-1c0.199,0.098 0.398,0.098 0.597,0c-0.097,-0.198 -0.597,-0.3 -0.8,-0.8l0.5,0c-0.098,-0.398 -0.297,-0.7 -0.399,-0.898l1.2,0l-0.302,-0.403c0.5,-0.097 1,0 1.301,0.102c0.2,-0.102 0,-0.301 -0.199,-0.403c0.398,0.102 0.8,0.204 1.102,0.301c0.199,-0.199 -0.102,-0.3 -0.301,-0.5c0.699,0.102 0.898,0.301 1.199,0.5c0.2,-0.199 0,-0.3 -0.102,-0.5c0.5,0.2 0.704,0.403 1,0.602c0.102,-0.102 0.204,-0.2 0.102,-0.5c0.2,0.199 0.5,0.398 0.7,0.699c0.198,-0.102 0.1,-0.3 0.1,-0.5c0.302,0.3 0.598,0.602 0.802,0.898c0.097,0 0.097,-0.199 0.097,-0.398c0.801,0.8 2,2.8 0.301,3.602c-1.398,-1.204 -3.2,-2.102 -5.102,-2.704c2.5,1.301 3.903,2.301 4.704,3.204c-0.403,1.597 -2.5,1.699 -3.301,1.597c0.199,-0.097 0.3,-0.199 0.3,-0.3c-0.101,-0.098 -0.703,0 -1.203,-0.2l0,0.001Zm2.801,1.198c0.801,0.102 -4,4.403 -4.097,3.403c-0.102,-2.403 1.796,-3.801 4.097,-3.403Zm-5.097,9.5c-1.204,-1 -1.602,-3.699 0.597,-5c1.301,-0.398 0.5,5.403 -0.597,5Zm4.597,5c-0.699,0.403 -2.3,0.204 -3.398,-1.398c-0.801,-1.398 -0.7,-2.8 -0.102,-3.2c0.801,-0.5 2.102,0.2 3,1.302c0.801,0.898 1.2,2.699 0.5,3.296Zm-1.3,-6.097c-1.2,-0.801 -1.399,-2.602 -0.5,-4.102c1,-1.398 2.703,-2 3.902,-1.199c1.199,0.8 1.398,2.602 0.5,4.102c-0.903,1.5 -2.7,2 -3.903,1.199l0.001,0Zm5.101,8.898c-1.5,0.102 -2.898,-1.199 -2.898,-1.597c0,-0.602 1.796,-1.102 3,-1.102c1.199,-0.102 2.796,0.398 2.796,1c0,0.398 -1.5,1.7 -2.898,1.7l0,-0.001Zm3,-6.398c0,1.5 -1.3,2.699 -2.898,2.699c-1.602,0 -3,-1.2 -3,-2.7c0,-1.5 1.296,-2.698 2.898,-2.698c1.7,0 3,1.199 3,2.699Zm-1.8,-3.801c-1,-1.398 -0.7,-3.3 0.5,-4.102c1.198,-0.796 3,-0.296 3.902,1.204c0.898,1.5 0.699,3.296 -0.5,4.097c-1.204,0.7 -3,0.2 -3.903,-1.199l0.001,0Zm6,6c-1.302,1.8 -3,1.8 -3.598,1.3c-0.704,-0.6 -0.204,-2.6 0.796,-3.698c1,-1.204 2.204,-2 2.903,-1.403c0.5,0.7 0.8,2.602 -0.102,3.801l0.001,0Zm0.902,-3.7c-1.102,0.5 -2,-5.3 -0.602,-5c2.2,1.2 1.8,4 0.602,5Z" style="fill:#fff;fill-rule:nonzero;"/></svg>